<?xml version="1.0" encoding="UTF-8" standalone="no"?>
<!-- Created with Inkscape (http://www.inkscape.org/) -->

<svg
   xmlns:dc="http://purl.org/dc/elements/1.1/"
   xmlns:cc="http://creativecommons.org/ns#"
   xmlns:rdf="http://www.w3.org/1999/02/22-rdf-syntax-ns#"
   xmlns:svg="http://www.w3.org/2000/svg"
   xmlns="http://www.w3.org/2000/svg"
   xmlns:xlink="http://www.w3.org/1999/xlink"
   xmlns:sodipodi="http://sodipodi.sourceforge.net/DTD/sodipodi-0.dtd"
   xmlns:inkscape="http://www.inkscape.org/namespaces/inkscape"
   width="744.09448819"
   height="1052.3622047"
   id="svg2"
   version="1.1"
   inkscape:version="0.47 r22583"
   sodipodi:docname="New document 1">
  <defs
     id="defs4">
    <inkscape:perspective
       sodipodi:type="inkscape:persp3d"
       inkscape:vp_x="0 : 526.18109 : 1"
       inkscape:vp_y="0 : 1000 : 0"
       inkscape:vp_z="744.09448 : 526.18109 : 1"
       inkscape:persp3d-origin="372.04724 : 350.78739 : 1"
       id="perspective10" />
    <inkscape:perspective
       id="perspective2884"
       inkscape:persp3d-origin="0.5 : 0.33333333 : 1"
       inkscape:vp_z="1 : 0.5 : 1"
       inkscape:vp_y="0 : 1000 : 0"
       inkscape:vp_x="0 : 0.5 : 1"
       sodipodi:type="inkscape:persp3d" />
  </defs>
  <sodipodi:namedview
     id="base"
     pagecolor="#ffffff"
     bordercolor="#666666"
     borderopacity="1.0"
     inkscape:pageopacity="0.0"
     inkscape:pageshadow="2"
     inkscape:zoom="0.35"
     inkscape:cx="375"
     inkscape:cy="520"
     inkscape:document-units="px"
     inkscape:current-layer="layer1"
     showgrid="false"
     inkscape:window-width="563"
     inkscape:window-height="484"
     inkscape:window-x="0"
     inkscape:window-y="0"
     inkscape:window-maximized="0" />
  <metadata
     id="metadata7">
    <rdf:RDF>
      <cc:Work
         rdf:about="">
        <dc:format>image/svg+xml</dc:format>
        <dc:type
           rdf:resource="http://purl.org/dc/dcmitype/StillImage" />
        <dc:title></dc:title>
      </cc:Work>
    </rdf:RDF>
  </metadata>
  <g
     inkscape:label="Layer 1"
     inkscape:groupmode="layer"
     id="layer1">
    <image
       y="187.79076"
       x="144"
       id="image2886"
       height="432"
       width="432"
       xlink:href="file:///Users/brianna/Desktop/Cloud.gif" />
    <path
       style="fill:#000000"
       d="m 324.5,467.48438 c -2.75,-0.65915 -6.51396,-2.02303 -8.36436,-3.03085 C 311.89751,462.14522 304,454.92233 304,453.35453 c 0,-0.64983 -0.58292,-1.9787 -1.29538,-2.95304 -1.2307,-1.6831 -1.6176,-1.68718 -7.75,-0.0818 -4.97321,1.3019 -9.20876,1.58203 -18.45462,1.22057 -10.60601,-0.41464 -12.63891,-0.79201 -17.5,-3.24856 -8.06726,-4.07679 -11.28784,-8.33218 -11.8143,-15.61036 -0.23434,-3.23984 -0.51435,-5.89058 -0.62223,-5.89058 -0.10788,0 -2.85793,-0.49206 -6.11122,-1.09346 -12.64595,-2.33773 -19.38572,-9.24451 -20.20583,-20.7065 -0.39902,-5.57692 -0.10948,-7.54814 1.60124,-10.90143 1.91292,-3.74963 3.15282,-5.0099 9.9285,-10.09153 l 2.27616,-1.70708 -2.57561,-3.76972 c -5.26272,-7.70264 -4.19345,-19.5436 2.41055,-26.69412 8.30531,-8.99263 22.90578,-13.01317 35.36274,-9.73787 l 5.75,1.51185 0,-3.00394 c 0,-11.3458 15.02224,-19.01338 37.5,-19.14057 15.34947,-0.0869 24.10054,2.27848 28.7466,7.76995 1.73748,2.05363 1.76883,2.04021 6,-2.56906 2.33937,-2.54842 5.6034,-5.51136 7.2534,-6.58432 14.77858,-9.61018 41.54388,-8.37844 53.8886,2.47996 3.50024,3.07881 6.6114,9.3227 6.6114,13.26863 0,1.68187 0.315,1.69317 5.75,0.20634 3.5898,-0.98204 9.88256,-1.57718 16.75,-1.58414 9.88757,-0.01 11.62208,0.26912 17.15132,2.76021 7.52918,3.39213 10.81335,6.7207 12.3487,12.5157 1.33257,5.02962 0.57097,12.27002 -1.64667,15.65457 -1.44981,2.2127 -1.37853,2.26941 4.3363,3.45002 8.42162,1.73981 14.85247,5.31749 17.9374,9.97914 2.39445,3.61824 2.5926,4.64863 2.16073,11.23547 -0.70415,10.73941 -5.6887,19.26345 -14.18164,24.2519 -1.53846,0.90364 -1.5846,1.68293 -0.47873,8.087 2.24517,13.00188 -2.25343,20.95661 -14.44888,25.54946 -5.01586,1.88899 -8.15441,2.33031 -16.67853,2.3452 -5.775,0.0101 -11.625,-0.33958 -13,-0.77704 -2.30926,-0.7347 -2.6302,-0.42862 -4.20646,4.01164 -2.10463,5.92861 -6.60054,10.25571 -13.76113,13.24445 -4.82613,2.01436 -6.6446,2.2245 -15.5,1.79114 -14.77517,-0.72307 -27.61371,-6.25658 -32.66257,-14.07784 l -2.04892,-3.17401 -6.23062,6.12365 c -3.42684,3.36801 -8.43187,7.09738 -11.12229,8.28748 -6.02084,2.6633 -14.34198,3.37068 -20.96801,1.78249 z"
       id="path2890" />
  </g>
</svg>
